ply
format ascii 1.0
comment Created by Blender 2.93.3 - www.blender.org
element vertex 304
property float x
property float y
property float z
element face 603
property list uchar uint vertex_indices
end_header
-0.137054 0.126836 0.263342
-0.108850 0.132835 0.296055
-0.114272 0.152723 0.255765
-0.132340 -0.086875 0.078864
-0.080497 -0.091357 0.045161
-0.095348 -0.111518 0.069246
-0.096986 0.096174 0.342462
-0.080096 0.127112 0.327178
-0.130726 0.104622 0.300384
-0.116186 0.162302 0.208658
-0.098660 0.173975 0.174370
-0.131351 0.143505 0.175842
-0.035075 -0.184669 0.253742
-0.017024 -0.181098 0.283299
-0.050455 -0.167865 0.287856
0.064155 -0.146857 0.319898
-0.000221 -0.124475 0.357175
0.011455 -0.141267 0.332194
0.091734 -0.125240 0.324957
0.107263 -0.087920 0.341301
0.053889 -0.109823 0.354217
0.075499 -0.027056 0.019487
0.139483 -0.008104 0.058304
0.098521 -0.052903 0.036892
0.132757 0.139830 0.148142
0.159087 0.106728 0.146659
0.141619 0.105286 0.111980
0.163150 0.066113 0.105994
0.159942 -0.114196 0.232388
0.164180 -0.071150 0.281221
0.141159 -0.092387 0.300382
0.190792 0.041358 0.173770
0.170918 0.043562 0.113772
0.174441 0.074902 0.155580
0.170202 -0.049704 0.293424
0.179688 -0.069829 0.249381
0.187946 -0.022165 0.257426
0.015728 -0.167523 0.302492
0.028958 -0.178793 0.276288
0.059009 -0.168181 0.285685
-0.026166 -0.008623 0.001918
-0.062985 -0.001604 0.010532
-0.018249 0.029159 0.006251
-0.090300 -0.154057 0.117367
-0.087827 -0.143328 0.092784
-0.058876 -0.167352 0.107763
-0.187549 -0.041980 0.244604
-0.176602 -0.077580 0.244862
-0.164197 -0.077177 0.277481
-0.159183 0.096469 0.264581
-0.059425 0.156641 0.302079
-0.086870 0.158666 0.279927
-0.089360 -0.170789 0.147300
-0.043919 0.173602 0.282883
0.083229 -0.143926 0.090988
0.060774 -0.112346 0.047936
0.104080 -0.118438 0.075556
0.076823 0.142579 0.309390
0.061591 0.125353 0.342319
0.099210 0.109128 0.336512
0.184083 0.025273 0.139468
0.192620 0.046665 0.219421
0.198840 0.009814 0.182456
0.132230 0.096870 0.081502
0.112579 0.120221 0.091334
0.079669 0.025227 0.376812
0.037960 0.023960 0.392054
0.044632 -0.017604 0.392845
-0.039068 0.184910 0.257024
-0.097499 -0.171825 0.236707
-0.068028 -0.175055 0.254390
-0.113981 -0.138998 0.286681
-0.115991 0.080407 0.062772
-0.135573 0.057148 0.069773
-0.128878 0.094437 0.084913
0.186423 0.019011 0.256255
0.179565 0.005400 0.286699
0.191187 -0.039065 0.172499
0.194395 -0.032197 0.220557
0.186709 -0.062084 0.211765
0.162370 -0.108881 0.180308
0.179927 -0.082380 0.160197
0.098616 -0.014109 0.371537
0.133906 -0.022470 0.340741
0.125796 0.016244 0.350541
0.054195 -0.182619 0.147788
0.080518 -0.172372 0.143759
0.083580 -0.183605 0.195342
0.086539 -0.095200 0.047893
0.037461 0.184766 0.140188
0.007609 0.192357 0.145153
0.071749 0.185036 0.180957
-0.006010 -0.199340 0.215040
-0.052695 -0.189922 0.181917
-0.021051 -0.195178 0.160403
-0.043332 -0.000245 0.396108
-0.070773 -0.001403 0.382131
-0.069362 -0.041616 0.382998
-0.063189 0.112642 0.351636
-0.120403 0.016950 0.356148
-0.095813 0.032648 0.369668
-0.117672 -0.161941 0.187199
-0.080241 -0.179654 0.187377
-0.080241 0.179654 0.210553
-0.095077 0.092114 0.049562
-0.088848 0.119859 0.068124
-0.172220 -0.090195 0.212795
-0.163017 -0.111447 0.229127
-0.012109 -0.147999 0.328972
0.079619 -0.037707 0.379572
0.046764 -0.064944 0.379400
0.016728 -0.017416 0.394575
0.008576 -0.084997 0.375685
0.138317 -0.054680 0.328786
0.113066 -0.048447 0.357513
0.113825 -0.124994 0.301993
-0.152043 -0.033474 0.320195
-0.148536 -0.070505 0.310406
-0.119847 -0.057714 0.345952
-0.142720 -0.104595 0.286379
-0.121308 -0.099255 0.317495
-0.088600 -0.085441 0.359006
-0.083759 -0.138655 0.314414
-0.048134 -0.128465 0.342369
-0.015452 -0.040388 0.391346
-0.044573 -0.063331 0.379565
-0.044314 -0.102336 0.361425
-0.034260 -0.161851 0.310790
-0.019881 0.045111 0.390965
-0.056537 0.040761 0.387448
-0.079870 0.075061 0.362478
-0.115599 0.060467 0.346901
-0.151685 0.045705 0.317884
-0.133234 0.087916 0.320060
-0.118798 -0.024900 0.357506
-0.046258 0.071071 0.380421
-0.144476 0.001757 0.338636
0.076967 0.092842 0.354224
0.024712 0.108682 0.359416
-0.013460 0.107713 0.364886
-0.039401 0.140341 0.328578
0.003907 0.154242 0.321982
0.059661 0.169038 0.290694
0.046047 0.148612 0.326420
0.110472 0.126844 0.302507
0.093634 0.153903 0.281464
0.000012 0.078506 0.384118
0.010538 0.038394 0.390563
0.049820 0.070660 0.378508
-0.020875 0.164189 0.311887
0.147730 0.048848 0.321673
0.109919 0.057428 0.355424
0.154527 0.007143 0.320675
0.172865 0.045686 0.288004
0.158636 -0.030147 0.313370
0.041275 -0.192121 0.208195
-0.000269 -0.182068 0.113618
0.022382 -0.193153 0.162296
0.019092 -0.163474 0.086053
0.011099 -0.192575 0.249385
-0.041803 -0.181292 0.135253
-0.189701 -0.062747 0.208821
-0.196681 -0.018407 0.201608
-0.184876 -0.051238 0.144549
-0.192086 0.002898 0.155052
-0.180114 -0.013659 0.116694
-0.182384 0.030626 0.117536
-0.163730 0.021465 0.089087
-0.180383 -0.079054 0.176818
-0.153856 -0.125644 0.181294
-0.134414 -0.135306 0.147534
-0.160155 -0.097013 0.139100
-0.160425 -0.073201 0.103367
-0.137457 -0.109773 0.110573
-0.166812 -0.031106 0.091560
-0.136742 0.118254 0.120525
-0.163812 0.108154 0.176213
-0.121223 0.152007 0.142332
-0.155577 0.085987 0.119037
-0.158515 0.063754 0.099465
-0.185178 0.046208 0.149139
-0.093813 0.167889 0.244335
-0.073334 0.173187 0.137257
-0.052683 0.192453 0.181786
-0.029588 0.187812 0.146059
-0.083792 0.149514 0.095553
-0.115605 0.128156 0.104964
0.079036 0.172220 0.254017
0.124336 0.146181 0.249400
0.098875 0.173027 0.224946
0.117185 0.156403 0.212220
0.155823 0.120047 0.219160
0.149166 0.127398 0.182947
0.106489 0.143755 0.115563
0.084726 0.137871 0.079086
0.055481 0.167418 0.110833
0.130578 0.147173 0.177862
0.084399 0.172920 0.141743
0.190979 -0.016790 0.137961
0.170623 0.007046 0.097655
0.164395 -0.034115 0.093564
0.160938 -0.097376 0.139025
0.140902 -0.109097 0.107877
0.155929 -0.074507 0.100486
0.007003 0.178180 0.287161
0.035171 0.188154 0.255194
0.042983 0.190027 0.197244
0.001147 0.198331 0.188716
0.069042 0.189191 0.216033
0.132308 0.127158 0.279056
0.131027 0.094599 0.312932
0.155115 0.094457 0.270408
0.173599 0.099718 0.185983
0.177434 0.079972 0.233842
0.196793 0.000899 0.222512
0.157728 0.074045 0.296546
0.131609 -0.143861 0.174544
0.107753 -0.167478 0.220400
0.099265 -0.172149 0.176194
0.110944 -0.152815 0.141681
0.063464 -0.178948 0.251557
0.139342 -0.120041 0.267746
0.108830 -0.154989 0.258075
0.130727 -0.146788 0.220399
-0.135771 -0.128213 0.255993
-0.130953 -0.144308 0.224689
-0.188586 0.059656 0.186014
-0.196969 0.020750 0.189054
-0.180064 0.080667 0.223489
-0.158232 0.115607 0.223121
-0.195864 0.040047 0.223370
-0.178529 0.056452 0.260109
-0.187546 0.016364 0.262949
-0.189305 -0.019181 0.254247
-0.197030 -0.002120 0.222726
0.058422 0.000554 0.007739
0.013521 0.016578 0.002776
0.069645 0.040651 0.016465
-0.010157 0.122783 0.040661
0.022377 0.136956 0.058739
0.023185 0.104251 0.031645
0.127140 0.065091 0.065297
0.082126 0.110920 0.056457
0.053113 0.074032 0.022916
0.000544 0.050704 0.007623
0.002538 0.086844 0.017219
0.112075 0.047291 0.040318
0.085511 0.069580 0.037597
0.050257 0.130384 0.061508
0.104764 0.010108 0.030365
0.127164 -0.085775 0.072163
0.051943 -0.066871 0.018257
0.132914 -0.043205 0.057427
-0.072027 -0.066225 0.025289
-0.013328 -0.072934 0.010887
-0.043247 -0.098579 0.029028
-0.054350 -0.130274 0.057154
-0.011217 -0.158957 0.083011
0.022677 -0.111448 0.038197
-0.042421 -0.150664 0.079628
0.059720 -0.165655 0.108127
0.043276 -0.142808 0.068037
0.022215 -0.046863 0.007955
-0.088513 0.052643 0.029814
-0.111592 0.014276 0.032965
-0.095388 -0.031705 0.027766
-0.129007 -0.019870 0.051621
-0.118127 -0.061634 0.047981
-0.137944 0.013633 0.055982
-0.147529 -0.052692 0.079863
-0.113538 -0.120456 0.083975
-0.060162 0.041977 0.013041
-0.048173 0.071356 0.019632
-0.047246 0.101499 0.036145
-0.043689 0.137512 0.060881
-0.027456 0.164820 0.089544
-0.117288 -0.139504 0.116070
0.139472 -0.127130 0.144305
-0.014139 -0.003978 0.396332
-0.172831 -0.039433 0.284269
-0.172706 -0.004066 0.292221
0.120224 -0.137092 0.113690
0.092206 -0.153489 0.114661
0.081449 -0.076900 0.362254
0.020851 0.195746 0.223762
-0.013101 0.181756 0.118658
-0.000628 -0.100251 0.027200
-0.005523 -0.036796 0.004718
0.003934 -0.014174 0.002117
-0.051631 0.167887 0.109207
-0.058664 -0.189258 0.219834
-0.035770 0.195128 0.215790
-0.147589 0.134658 0.210084
-0.180021 0.079702 0.159991
0.014535 0.170565 0.095137
-0.172943 0.034335 0.295231
0.178908 -0.050853 0.135409
-0.054579 -0.037084 0.014386
-0.019442 -0.119908 0.046388
-0.160367 0.072351 0.294180
0.154445 0.115940 0.246016
0.143209 0.034282 0.066225
-0.010978 0.148503 0.069537
0.033770 -0.012306 0.000856
3 0 1 2
3 3 4 5
3 6 7 8
3 9 10 11
3 12 13 14
3 15 16 17
3 18 19 20
3 21 22 23
3 24 25 26
3 25 27 26
3 28 29 30
3 31 32 33
3 34 35 36
3 37 38 39
3 40 41 42
3 43 44 45
3 46 47 48
3 0 49 8
3 1 50 51
3 43 45 52
3 51 50 53
3 54 55 56
3 57 58 59
3 29 28 35
3 32 31 60
3 31 61 62
3 63 64 26
3 65 66 67
3 68 51 53
3 69 70 71
3 72 73 74
3 75 76 36
3 77 78 79
3 79 80 81
3 82 83 84
3 85 86 87
3 56 55 88
3 89 90 91
3 92 93 94
3 95 96 97
3 7 6 98
3 99 96 100
3 101 102 69
3 9 103 10
3 104 72 105
3 47 106 107
3 20 16 15
3 108 37 17
3 37 39 15
3 109 67 110
3 110 111 112
3 112 16 20
3 113 114 19
3 115 30 19
3 116 117 118
3 117 119 120
3 121 118 120
3 121 122 123
3 95 97 124
3 112 125 126
3 127 13 37
3 121 97 118
3 127 123 122
3 16 112 126
3 108 16 123
3 128 129 95
3 130 131 100
3 131 132 99
3 131 6 133
3 96 99 134
3 135 130 100
3 132 116 136
3 137 58 138
3 139 140 98
3 141 140 138
3 142 143 57
3 144 145 57
3 128 146 135
3 147 148 146
3 148 137 138
3 143 141 138
3 149 50 140
3 65 82 84
3 114 83 82
3 150 151 84
3 152 84 83
3 152 153 150
3 76 152 154
3 148 66 65
3 65 67 82
3 137 148 151
3 87 155 85
3 156 157 94
3 158 85 156
3 155 159 92
3 92 94 157
3 93 52 160
3 161 162 163
3 163 164 165
3 166 167 165
3 161 46 162
3 107 106 168
3 169 107 168
3 170 169 171
3 172 173 171
3 172 163 174
3 175 176 177
3 178 179 180
3 181 103 9
3 182 177 10
3 183 184 182
3 185 186 177
3 187 188 189
3 190 191 192
3 193 194 195
3 26 64 193
3 91 190 196
3 197 89 91
3 29 35 34
3 35 80 79
3 79 81 77
3 60 62 198
3 199 198 200
3 201 202 203
3 68 204 205
3 53 149 204
3 206 90 207
3 207 184 183
3 187 208 205
3 31 33 61
3 209 210 211
3 212 191 213
3 36 214 75
3 211 210 215
3 115 15 39
3 216 217 218
3 86 219 218
3 220 155 87
3 38 159 220
3 221 222 223
3 222 115 39
3 119 107 224
3 71 224 69
3 70 122 71
3 52 102 101
3 107 169 225
3 225 101 69
3 226 180 227
3 228 229 176
3 228 226 230
3 49 228 231
3 230 232 231
3 233 232 234
3 235 236 237
3 238 239 240
3 63 241 242
3 64 63 194
3 243 244 245
3 246 237 247
3 247 243 242
3 241 247 242
3 248 242 243
3 63 27 241
3 195 194 248
3 235 237 249
3 21 249 22
3 202 56 250
3 88 251 23
3 200 203 252
3 199 200 22
3 253 254 255
3 256 4 255
3 44 5 256
3 257 256 258
3 45 44 259
3 260 261 54
3 262 251 254
3 261 257 258
3 263 41 264
3 264 265 266
3 253 267 265
3 167 73 268
3 267 269 266
3 267 4 3
3 270 173 3
3 174 167 268
3 42 41 271
3 272 263 104
3 263 264 72
3 74 186 105
3 73 178 74
3 245 244 272
3 238 245 273
3 274 273 105
3 264 73 72
3 185 275 274
3 276 44 43
3 26 27 63
3 216 277 80
3 66 148 147
3 95 278 128
3 177 11 10
3 186 74 175
3 279 116 280
3 76 154 34
3 62 77 198
3 60 198 199
3 30 29 34
3 150 153 215
3 212 192 191
3 203 202 250
3 209 144 210
3 281 277 219
3 250 252 203
3 210 144 59
3 217 223 222
3 252 23 22
3 114 82 109
3 115 18 15
3 63 242 194
3 246 247 241
3 246 249 237
3 218 217 87
3 208 190 91
3 137 59 58
3 142 57 145
3 282 260 54
3 148 65 151
3 82 67 109
3 20 19 283
3 208 284 205
3 239 248 240
3 148 138 146
3 85 157 156
3 251 258 254
3 278 124 111
3 147 146 128
3 141 204 149
3 184 207 90
3 238 240 245
3 149 140 141
3 13 12 159
3 285 184 90
3 259 256 257
3 254 286 255
3 287 40 288
3 95 124 278
3 16 126 123
3 108 123 127
3 14 13 127
3 289 285 275
3 149 53 50
3 182 184 289
3 93 290 102
3 291 183 103
3 253 255 4
3 123 126 121
3 122 14 127
3 185 289 275
3 272 104 273
3 290 70 69
3 51 103 181
3 93 102 52
3 4 256 5
3 41 265 264
3 100 131 99
3 267 266 265
3 6 8 133
3 181 9 2
3 52 101 170
3 134 99 136
3 268 73 264
3 176 11 177
3 174 266 269
3 176 229 292
3 48 119 117
3 73 167 179
3 230 231 228
3 293 228 176
3 174 165 167
3 280 232 233
3 161 47 46
3 293 178 180
3 17 16 108
3 294 248 239
3 280 132 295
3 224 71 119
3 76 75 153
3 77 296 198
3 296 203 200
3 35 78 36
3 168 163 171
3 69 224 225
3 265 41 297
3 10 103 183
3 69 102 290
3 41 263 271
3 258 256 298
3 284 207 291
3 291 68 205
3 138 140 139
3 283 110 20
3 252 250 23
3 24 193 197
3 197 91 196
3 28 216 80
3 25 192 212
3 143 142 204
3 49 299 8
3 236 244 237
3 294 89 195
3 281 202 277
3 79 78 35
3 221 223 28
3 114 113 83
3 115 221 30
3 218 219 216
3 67 66 111
3 155 92 157
3 206 207 284
3 158 156 257
3 135 129 128
3 290 92 12
3 185 105 186
3 5 44 270
3 8 1 0
3 163 172 171
3 106 161 168
3 36 78 214
3 214 78 62
3 191 188 300
3 216 223 217
3 301 22 249
3 115 19 18
3 187 205 142
3 288 262 287
3 127 37 108
3 275 294 302
3 302 239 238
3 302 274 275
3 297 254 253
3 183 182 10
3 72 104 263
3 51 181 2
3 3 269 267
3 0 292 229
3 170 171 173
3 234 232 230
3 227 230 226
3 164 163 162
3 233 234 162
3 283 114 109
3 100 96 129
3 116 134 136
3 98 135 139
3 59 151 210
3 45 257 160
3 180 166 164
3 173 276 170
3 1 51 2
3 292 2 9
3 204 142 205
3 300 211 213
3 188 209 300
3 61 214 62
3 282 281 219
3 227 234 230
3 229 49 0
3 231 295 299
3 233 279 280
3 240 248 243
3 302 294 239
3 262 303 21
3 255 286 298
3 258 251 55
3 179 178 73
3 219 86 282
3 288 40 236
3 296 200 198
3 211 215 153
3 19 30 113
3 193 64 194
3 151 59 137
3 190 208 189
3 222 39 220
3 193 195 197
3 21 235 249
3 283 109 110
3 20 15 18
3 247 237 243
3 236 235 303
3 257 261 158
3 254 287 262
3 68 53 204
3 273 274 238
3 105 185 274
3 100 129 135
3 231 232 295
3 81 296 77
3 191 300 213
3 222 221 115
3 12 70 290
3 128 278 147
3 90 206 91
3 199 32 60
3 76 34 36
3 97 125 124
3 42 244 236
3 89 294 285
3 33 27 25
3 187 145 188
3 285 90 89
3 46 233 162
3 214 61 75
3 76 153 152
3 154 152 83
3 25 24 192
3 114 283 19
3 303 235 21
3 159 155 220
3 260 158 261
3 67 111 110
3 37 15 17
3 183 291 207
3 42 271 272
3 95 129 96
3 50 7 140
3 52 45 160
3 44 256 259
3 97 121 125
3 270 3 5
3 118 134 116
3 119 71 120
3 169 168 171
3 293 180 226
3 166 165 164
3 164 227 180
3 34 113 30
3 116 279 48
3 48 117 116
3 120 71 122
3 125 112 124
3 96 134 97
3 130 98 6
3 132 133 299
3 8 7 1
3 66 147 278
3 50 1 7
3 154 83 113
3 84 151 65
3 38 37 13
3 13 159 38
3 159 12 92
3 93 92 290
3 156 160 257
3 86 260 282
3 85 158 260
3 163 168 161
3 164 162 227
3 106 47 161
3 2 292 0
3 175 74 178
3 11 176 292
3 178 293 176
3 176 175 178
3 188 191 190
3 201 80 277
3 68 291 51
3 187 142 145
3 153 75 213
3 277 216 219
3 43 52 276
3 101 169 170
3 48 47 107
3 180 179 166
3 280 295 232
3 303 288 236
3 195 248 294
3 241 301 246
3 27 301 241
3 301 249 246
3 54 56 281
3 32 199 27
3 287 254 297
3 40 287 297
3 167 166 179
3 269 3 172
3 276 270 44
3 275 285 294
3 105 72 74
3 62 60 31
3 154 113 34
3 189 208 187
3 218 87 86
3 303 262 288
3 70 12 14
3 105 273 104
3 276 173 270
3 233 46 279
3 202 281 56
3 251 21 23
3 55 261 258
3 135 146 139
3 245 272 273
3 93 160 94
3 256 255 298
3 271 263 272
3 268 264 266
3 133 132 131
3 169 101 225
3 292 9 11
3 132 136 99
3 174 268 266
3 299 49 231
3 165 174 163
3 26 193 24
3 107 119 48
3 299 295 132
3 258 298 286
3 98 140 7
3 204 141 143
3 172 174 269
3 243 237 244
3 91 206 208
3 55 251 88
3 267 253 4
3 213 61 212
3 213 211 153
3 81 80 201
3 81 201 203
3 252 22 200
3 151 150 210
3 196 190 192
3 197 196 24
3 23 250 88
3 217 220 87
3 242 248 194
3 20 110 112
3 291 205 284
3 94 160 156
3 177 182 185
3 177 186 175
3 225 224 107
3 49 229 228
3 226 228 293
3 48 279 46
3 185 182 289
3 122 70 14
3 125 121 126
3 236 40 42
3 238 274 302
3 28 80 35
3 32 27 33
3 81 203 296
3 152 150 84
3 192 24 196
3 57 59 144
3 57 143 58
3 138 58 143
3 243 245 240
4 209 188 145 144
3 146 138 139
3 254 258 286
3 297 253 265
3 121 120 122
3 25 212 33
3 221 28 30
3 22 301 199
3 211 300 209
3 201 277 202
3 190 189 188
3 88 250 56
3 85 260 86
3 261 55 54
3 220 39 38
3 197 195 89
3 272 244 42
3 259 257 45
3 297 41 40
3 130 135 98
3 131 130 6
3 118 97 134
3 120 118 117
3 8 299 133
3 173 172 3
3 162 234 227
3 124 112 111
3 132 280 116
3 278 111 66
3 210 150 215
3 157 85 155
3 289 184 285
3 77 62 78
3 284 208 206
3 212 61 33
3 61 213 75
3 223 216 28
3 170 276 52
3 251 262 21
3 301 27 199
3 51 291 103
3 217 222 220
3 281 282 54
